<svg id="Layer_1" data-name="Layer 1" xmlns="http://www.w3.org/2000/svg" viewBox="0 0 499.2 117.4"><path d="M421.44,304v84.37H404.57l-60.51-61v61H325.38V304h20.49l56.89,57.86V304Z" transform="translate(-325.38 -295.05)" style="fill:#fdf0e1"/><path d="M440.48,304.58c0-5.67,4.7-9.53,11.33-9.53s11.09,3.86,11.09,9.53c0,5.42-4.58,9.4-11.09,9.4S440.48,310,440.48,304.58Zm20.85,83.76H442.65V321.93h18.68Z" transform="translate(-325.38 -295.05)" style="fill:#fdf0e1"/><path d="M480.61,388.34V299.15h18.68v89.19Z" transform="translate(-325.38 -295.05)" style="fill:#fdf0e1"/><path d="M537.5,377.5v34.95H518.81V321.93H537.5v10.73c5.42-7.35,15.3-13.26,28.92-13.26,21.1,0,35.8,14,35.8,35.68s-14.7,35.67-35.8,35.67C552.8,390.75,542.92,384.85,537.5,377.5Zm.12-31.7v18.56c5.78,7.59,14.34,10.85,24.1,10.85,14.47,0,22.66-7.12,22.66-20.13S576.19,335,561.72,335C552,335,543.4,338.2,537.62,345.8Z" transform="translate(-325.38 -295.05)" style="fill:#fdf0e1"/><path d="M617.16,388.34V321.93h18.68v11.69c5.43-8.8,16.16-14.1,28.93-14.1,19.89,0,30.13,12.66,30.13,30.38v38.44H676.22V351.1c0-10.85-5.78-16.75-16.87-16.75-9.89,0-18.08,4.58-23.51,14.1v39.89Z" transform="translate(-325.38 -295.05)" style="fill:#fdf0e1"/><path d="M764.2,384.49a40.76,40.76,0,0,1-21.81,6.39c-14,0-24.83-7.6-24.83-22.54V335.91h-12.3v-14h12.3V306.5h18.68v15.43H763.6v14H736.24v29.17c0,6.75,5.06,10.25,11.69,10.25,4.58,0,8.68-1.69,12.41-3.5Z" transform="translate(-325.38 -295.05)" style="fill:#fdf0e1"/><path d="M776.25,388.34V321.93h18.68v13.74c5.43-10,16.88-15.18,29.65-15.18v16c-14.46,0-25.67,5.66-29.65,17.35v34.47Z" transform="translate(-325.38 -295.05)" style="fill:#fdf0e1"/></svg>